<?xml version="1.0" standalone="no"?>
<!DOCTYPE svg PUBLIC "-//W3C//DTD SVG 20010904//EN"
 "http://www.w3.org/TR/2001/REC-SVG-20010904/DTD/svg10.dtd">
<svg version="1.0" xmlns="http://www.w3.org/2000/svg"
 width="1200.000000pt" height="1200.000000pt" viewBox="0 0 1200.000000 1200.000000"
 preserveAspectRatio="xMidYMid meet">
<metadata>
Created by potrace 1.16, written by Peter Selinger 2001-2019
</metadata>
<g transform="translate(0.000000,1200.000000) scale(0.100000,-0.100000)"
fill="#000000" stroke="none">
<path d="M5810 11763 c-182 -5 -466 -30 -667 -57 -82 -12 -282 -51 -423 -82
-742 -168 -1443 -482 -2060 -923 -99 -70 -319 -238 -330 -251 -3 -4 -48 -42
-100 -85 -144 -120 -500 -481 -641 -650 -277 -334 -511 -681 -697 -1035 -61
-118 -97 -193 -202 -425 -39 -86 -146 -375 -185 -500 -83 -267 -146 -522 -185
-755 -11 -69 -23 -136 -25 -150 -51 -281 -74 -932 -46 -1290 11 -134 35 -351
46 -410 2 -14 14 -81 25 -150 145 -857 515 -1720 1047 -2435 305 -411 718
-830 1133 -1150 366 -283 850 -561 1301 -748 978 -406 2092 -532 3152 -356
410 68 814 181 1212 341 151 60 590 269 655 312 19 12 87 53 150 91 198 118
399 257 636 441 179 138 532 474 713 679 716 808 1196 1815 1371 2876 103 624
102 1280 -1 1899 -143 859 -482 1683 -982 2383 -514 719 -1151 1289 -1914
1714 -457 254 -949 443 -1486 573 -158 38 -503 95 -691 115 -150 16 -559 36
-656 33 -30 -1 -98 -3 -150 -5z m390 -303 l0 -60 100 0 100 0 0 50 0 50 50 0
50 0 0 -50 0 -50 100 0 100 0 0 35 c0 32 3 35 28 35 29 0 324 -47 355 -56 16
-5 17 -29 17 -310 l0 -304 100 0 100 0 0 280 c0 256 1 280 17 280 39 0 389
-104 561 -167 l122 -45 0 -174 0 -174 100 0 100 0 0 130 c0 72 2 130 5 130 3
0 61 -25 128 -56 362 -165 831 -457 1120 -696 l47 -40 0 -184 0 -184 100 0 99
0 3 98 3 97 205 -205 c275 -274 470 -510 677 -818 188 -279 367 -609 496 -915
l67 -158 0 -174 0 -175 60 0 59 0 25 -82 c44 -147 56 -191 56 -205 0 -10 -24
-13 -100 -13 l-100 0 0 -450 0 -450 100 0 100 0 1 448 c0 287 4 439 10 424 5
-13 27 -112 49 -221 l40 -197 0 -904 0 -904 -40 -196 c-22 -107 -58 -262 -80
-345 -52 -189 -150 -483 -167 -501 -7 -7 -13 -21 -13 -32 0 -18 -67 -191 -89
-228 -8 -14 -10 57 -11 269 l0 287 -100 0 -100 0 0 -498 0 -499 -112 -187
c-62 -102 -151 -241 -198 -308 l-85 -122 -3 657 -2 657 -100 0 -100 0 0 -788
0 -788 -114 -130 c-115 -131 -394 -410 -497 -497 -47 -39 -63 -47 -98 -47 -40
0 -41 -1 -41 -34 0 -31 -8 -41 -72 -94 -89 -72 -309 -232 -320 -232 -4 0 -8
149 -8 330 l0 330 -100 0 -100 0 0 -400 0 -399 -43 -26 c-24 -14 -47 -25 -50
-25 -4 0 -7 124 -7 275 l0 275 -100 0 -100 0 -2 -337 -3 -337 -40 -23 c-22
-12 -43 -23 -47 -23 -5 0 -8 27 -8 60 l0 60 -100 0 -100 0 0 -110 0 -111 -67
-30 c-503 -227 -1108 -385 -1707 -446 -215 -22 -791 -25 -1001 -5 -550 52
-1069 174 -1555 367 -157 62 -452 196 -525 239 l-45 27 0 184 0 185 -100 0
-99 0 -3 -129 -3 -129 -133 84 c-73 46 -162 104 -198 130 l-64 46 0 149 0 149
-100 0 -100 0 0 -70 c0 -38 -3 -70 -6 -70 -21 0 -284 229 -437 379 l-107 106
0 202 0 203 -100 0 -100 0 0 -92 -1 -93 -50 55 c-57 62 -205 251 -292 372
l-57 80 0 439 0 439 -100 0 -100 0 -2 -277 -3 -278 -48 82 -47 82 0 195 0 195
-97 3 -98 3 -50 115 -50 115 -3 332 -3 332 -102 3 -101 3 -23 95 c-68 281 -73
331 -73 731 l0 369 -35 0 -35 0 0 158 c0 267 36 727 58 741 5 3 12 49 15 101
3 52 19 163 36 245 62 304 59 350 60 -802 l1 -1043 100 0 100 0 0 1050 0 1050
-100 0 c-55 0 -100 4 -100 8 0 45 177 592 191 592 5 0 9 9 9 20 0 12 21 73 48
137 l47 117 3 -587 2 -587 100 0 100 0 0 795 0 794 59 103 60 103 90 3 91 3 0
139 0 138 86 118 c90 124 273 353 299 374 13 11 15 1 15 -79 l0 -91 100 0 100
0 0 204 0 204 132 127 c273 262 578 499 917 712 47 29 89 53 93 53 4 0 8 -56
8 -125 l0 -125 100 0 100 0 0 185 0 185 50 25 50 25 0 -210 0 -210 100 0 100
0 0 260 0 261 46 19 c25 11 48 20 50 20 2 0 4 -58 4 -130 l0 -130 100 0 100 0
0 174 0 174 47 16 c26 9 48 16 50 16 2 0 3 -18 3 -40 l0 -40 100 0 100 0 0 75
c0 73 1 76 28 86 85 32 502 139 640 163 l32 6 0 -615 0 -615 100 0 100 0 0
629 c0 697 -6 641 66 641 32 0 34 -2 34 -35 l0 -35 100 0 100 0 0 50 0 50 50
0 50 0 0 -50 0 -50 100 0 100 0 0 60 0 60 200 0 200 0 0 -60z"/>
<path d="M6800 11250 l0 -150 100 0 100 0 0 150 0 150 -100 0 -100 0 0 -150z"/>
<path d="M4400 10650 l0 -450 100 0 100 0 0 450 0 450 -100 0 -100 0 0 -450z"/>
<path d="M4700 10950 l0 -150 100 0 100 0 0 150 0 150 -100 0 -100 0 0 -150z"/>
<path d="M5300 10500 l0 -600 100 0 100 0 0 600 0 600 -100 0 -100 0 0 -600z"/>
<path d="M6200 10650 l0 -450 100 0 100 0 0 450 0 450 -100 0 -100 0 0 -450z"/>
<path d="M7400 10950 l0 -150 100 0 100 0 0 150 0 150 -100 0 -100 0 0 -150z"/>
<path d="M7700 10500 l0 -600 100 0 100 0 0 600 0 600 -100 0 -100 0 0 -600z"/>
<path d="M4100 10650 l0 -150 100 0 100 0 0 150 0 150 -100 0 -100 0 0 -150z"/>
<path d="M5600 10500 l0 -300 100 0 100 0 0 300 0 300 -100 0 -100 0 0 -300z"/>
<path d="M6500 10650 l0 -150 100 0 100 0 0 150 0 150 -100 0 -100 0 0 -150z"/>
<path d="M6800 10650 l0 -150 100 0 100 0 0 150 0 150 -100 0 -100 0 0 -150z"/>
<path d="M8300 10500 l0 -300 100 0 100 0 0 300 0 300 -100 0 -100 0 0 -300z"/>
<path d="M4700 10350 l0 -150 100 0 100 0 0 150 0 150 -100 0 -100 0 0 -150z"/>
<path d="M5900 10200 l0 -300 100 0 100 0 0 300 0 300 -100 0 -100 0 0 -300z"/>
<path d="M7100 10200 l0 -300 100 0 100 0 0 300 0 300 -100 0 -100 0 0 -300z"/>
<path d="M7400 10200 l0 -300 100 0 100 0 0 300 0 300 -100 0 -100 0 0 -300z"/>
<path d="M2900 10050 l0 -150 100 0 100 0 0 150 0 150 -100 0 -100 0 0 -150z"/>
<path d="M3500 10050 l0 -150 100 0 100 0 0 150 0 150 -100 0 -100 0 0 -150z"/>
<path d="M4100 10050 l0 -150 100 0 100 0 0 150 0 150 -100 0 -100 0 0 -150z"/>
<path d="M8000 10050 l0 -150 100 0 100 0 0 150 0 150 -100 0 -100 0 0 -150z"/>
<path d="M8900 10050 l0 -150 100 0 100 0 0 150 0 150 -100 0 -100 0 0 -150z"/>
<path d="M3124 9735 c-525 -93 -901 -565 -871 -1095 23 -392 269 -746 627
-901 154 -67 243 -84 425 -83 139 1 173 4 256 26 371 100 657 385 756 754 23
87 26 119 27 259 0 132 -3 175 -21 246 -99 390 -385 678 -775 779 -109 28
-310 35 -424 15z m360 -325 c128 -32 228 -91 332 -195 149 -148 215 -306 215
-515 0 -209 -66 -366 -215 -516 -150 -149 -307 -215 -516 -215 -209 0 -366 66
-515 216 -151 150 -215 304 -215 515 0 211 64 365 215 515 102 103 202 162
327 195 102 26 269 27 372 0z"/>
<path d="M3060 8935 l-235 -235 238 -238 237 -237 237 237 238 238 -235 235
c-129 129 -237 235 -240 235 -3 0 -111 -106 -240 -235z"/>
<path d="M4700 9600 l0 -150 100 0 100 0 0 150 0 150 -100 0 -100 0 0 -150z"/>
<path d="M5000 9600 l0 -150 100 0 100 0 0 150 0 150 -100 0 -100 0 0 -150z"/>
<path d="M5600 9450 l0 -300 100 0 100 0 0 300 0 300 -100 0 -100 0 0 -300z"/>
<path d="M6500 9450 l0 -300 100 0 100 0 0 300 0 300 -100 0 -100 0 0 -300z"/>
<path d="M7100 9600 l0 -150 100 0 100 0 0 150 0 150 -100 0 -100 0 0 -150z"/>
<path d="M7650 8700 l0 -1050 1050 0 1050 0 0 1050 0 1050 -1050 0 -1050 0 0
-1050z m1780 0 l0 -730 -730 0 -730 0 0 730 0 730 730 0 730 0 0 -730z"/>
<path d="M8460 8935 l-235 -235 238 -238 237 -237 237 237 238 238 -235 235
c-129 129 -237 235 -240 235 -3 0 -111 -106 -240 -235z"/>
<path d="M5900 9150 l0 -300 100 0 100 0 0 300 0 300 -100 0 -100 0 0 -300z"/>
<path d="M6200 8850 l0 -600 100 0 100 0 0 600 0 600 -100 0 -100 0 0 -600z"/>
<path d="M9950 9300 l0 -150 100 0 100 0 0 150 0 150 -100 0 -100 0 0 -150z"/>
<path d="M1550 8700 l0 -450 100 0 100 0 0 450 0 450 -100 0 -100 0 0 -450z"/>
<path d="M1850 9000 l0 -150 100 0 100 0 0 150 0 150 -100 0 -100 0 0 -150z"/>
<path d="M4700 9000 l0 -150 100 0 100 0 0 150 0 150 -100 0 -100 0 0 -150z"/>
<path d="M5000 8850 l0 -300 100 0 100 0 0 300 0 300 -100 0 -100 0 0 -300z"/>
<path d="M5300 9000 l0 -150 100 0 100 0 0 150 0 150 -100 0 -100 0 0 -150z"/>
<path d="M6800 9000 l0 -150 100 0 100 0 0 150 0 150 -100 0 -100 0 0 -150z"/>
<path d="M5600 8400 l0 -450 100 0 100 0 0 450 0 450 -100 0 -100 0 0 -450z"/>
<path d="M6500 8250 l0 -600 100 0 100 0 0 600 0 600 -100 0 -100 0 0 -600z"/>
<path d="M7100 8700 l0 -150 100 0 100 0 0 150 0 150 -100 0 -100 0 0 -150z"/>
<path d="M9950 8700 l0 -150 100 0 100 0 0 150 0 150 -100 0 -100 0 0 -150z"/>
<path d="M1250 8250 l0 -300 100 0 100 0 0 300 0 300 -100 0 -100 0 0 -300z"/>
<path d="M10250 8250 l0 -300 100 0 100 0 0 300 0 300 -100 0 -100 0 0 -300z"/>
<path d="M4700 7950 l0 -300 100 0 100 0 0 300 0 300 -100 0 -100 0 0 -300z"/>
<path d="M5000 8100 l0 -150 100 0 100 0 0 150 0 150 -100 0 -100 0 0 -150z"/>
<path d="M5900 7950 l0 -300 100 0 100 0 0 300 0 300 -100 0 -100 0 0 -300z"/>
<path d="M7100 7950 l0 -300 100 0 100 0 0 300 0 300 -100 0 -100 0 0 -300z"/>
<path d="M9950 8100 l0 -150 100 0 100 0 0 150 0 150 -100 0 -100 0 0 -150z"/>
<path d="M10550 7950 l0 -300 100 0 100 0 0 300 0 300 -100 0 -100 0 0 -300z"/>
<path d="M1550 6900 l0 -1050 100 0 100 0 0 1050 0 1050 -100 0 -100 0 0
-1050z"/>
<path d="M1850 7350 l0 -600 100 0 100 0 0 600 0 600 -100 0 -100 0 0 -600z"/>
<path d="M5300 7200 l0 -750 100 0 100 0 0 750 0 750 -100 0 -100 0 0 -750z"/>
<path d="M10850 7800 l0 -150 100 0 100 0 0 150 0 150 -100 0 -100 0 0 -150z"/>
<path d="M1250 7500 l0 -150 100 0 100 0 0 150 0 150 -100 0 -100 0 0 -150z"/>
<path d="M5000 7500 l0 -150 100 0 100 0 0 150 0 150 -100 0 -100 0 0 -150z"/>
<path d="M10250 7350 l0 -300 100 0 100 0 0 300 0 300 -100 0 -100 0 0 -300z"/>
<path d="M2300 6600 l0 -750 100 0 100 0 0 750 0 750 -100 0 -100 0 0 -750z"/>
<path d="M2900 7200 l0 -150 100 0 100 0 0 150 0 150 -100 0 -100 0 0 -150z"/>
<path d="M4100 7200 l0 -150 100 0 100 0 0 150 0 150 -100 0 -100 0 0 -150z"/>
<path d="M4400 6900 l0 -450 100 0 100 0 0 450 0 450 -100 0 -100 0 0 -450z"/>
<path d="M5600 7050 l0 -300 100 0 100 0 0 300 0 300 -100 0 -100 0 0 -300z"/>
<path d="M5900 7050 l0 -300 100 0 100 0 0 300 0 300 -100 0 -100 0 0 -300z"/>
<path d="M6200 7200 l0 -150 100 0 100 0 0 150 0 150 -100 0 -100 0 0 -150z"/>
<path d="M7100 6600 l0 -750 100 0 100 0 0 750 0 750 -100 0 -100 0 0 -750z"/>
<path d="M8000 6450 l0 -900 100 0 100 0 0 900 0 900 -100 0 -100 0 0 -900z"/>
<path d="M8900 7200 l0 -150 100 0 100 0 0 150 0 150 -100 0 -100 0 0 -150z"/>
<path d="M9500 6900 l0 -450 100 0 100 0 0 450 0 450 -100 0 -100 0 0 -450z"/>
<path d="M1250 6750 l0 -300 100 0 100 0 0 300 0 300 -100 0 -100 0 0 -300z"/>
<path d="M3200 6900 l0 -150 100 0 100 0 0 150 0 150 -100 0 -100 0 0 -150z"/>
<path d="M3500 6900 l0 -150 100 0 100 0 0 150 0 150 -100 0 -100 0 0 -150z"/>
<path d="M6800 6600 l0 -450 100 0 100 0 0 450 0 450 -100 0 -100 0 0 -450z"/>
<path d="M7700 6900 l0 -150 100 0 100 0 0 150 0 150 -100 0 -100 0 0 -150z"/>
<path d="M8600 6600 l0 -450 100 0 100 0 0 450 0 450 -100 0 -100 0 0 -450z"/>
<path d="M9200 6900 l0 -150 100 0 100 0 0 150 0 150 -100 0 -100 0 0 -150z"/>
<path d="M10550 6600 l0 -450 100 0 100 0 0 450 0 450 -100 0 -100 0 0 -450z"/>
<path d="M4100 6600 l0 -150 100 0 100 0 0 150 0 150 -100 0 -100 0 0 -150z"/>
<path d="M4700 6450 l0 -300 100 0 100 0 0 300 0 300 -100 0 -100 0 0 -300z"/>
<path d="M5000 6600 l0 -150 100 0 100 0 0 150 0 150 -100 0 -100 0 0 -150z"/>
<path d="M8900 6600 l0 -150 100 0 100 0 0 150 0 150 -100 0 -100 0 0 -150z"/>
<path d="M10250 6600 l0 -150 100 0 100 0 0 150 0 150 -100 0 -100 0 0 -150z"/>
<path d="M10850 6600 l0 -150 100 0 100 0 0 150 0 150 -100 0 -100 0 0 -150z"/>
<path d="M1850 6300 l0 -150 100 0 100 0 0 150 0 150 -100 0 -100 0 0 -150z"/>
<path d="M2900 6000 l0 -450 100 0 100 0 0 450 0 450 -100 0 -100 0 0 -450z"/>
<path d="M3200 6300 l0 -150 100 0 100 0 0 150 0 150 -100 0 -100 0 0 -150z"/>
<path d="M3500 6000 l0 -450 100 0 100 0 0 450 0 450 -100 0 -100 0 0 -450z"/>
<path d="M6500 6300 l0 -150 100 0 100 0 0 150 0 150 -100 0 -100 0 0 -150z"/>
<path d="M1250 5850 l0 -300 100 0 100 0 0 300 0 300 -100 0 -100 0 0 -300z"/>
<path d="M2600 6000 l0 -150 100 0 100 0 0 150 0 150 -100 0 -100 0 0 -150z"/>
<path d="M4100 6000 l0 -150 100 0 100 0 0 150 0 150 -100 0 -100 0 0 -150z"/>
<path d="M4400 5850 l0 -300 100 0 100 0 0 300 0 300 -100 0 -100 0 0 -300z"/>
<path d="M5000 5850 l0 -300 100 0 100 0 0 300 0 300 -100 0 -100 0 0 -300z"/>
<path d="M5600 6000 l0 -150 100 0 100 0 0 150 0 150 -100 0 -100 0 0 -150z"/>
<path d="M5900 6000 l0 -150 100 0 100 0 0 150 0 150 -100 0 -100 0 0 -150z"/>
<path d="M6200 5850 l0 -300 100 0 100 0 0 300 0 300 -100 0 -100 0 0 -300z"/>
<path d="M7700 5850 l0 -300 100 0 100 0 0 300 0 300 -100 0 -100 0 0 -300z"/>
<path d="M9500 5700 l0 -450 100 0 100 0 0 450 0 450 -100 0 -100 0 0 -450z"/>
<path d="M10250 6000 l0 -150 100 0 100 0 0 150 0 150 -100 0 -100 0 0 -150z"/>
<path d="M11150 6000 l0 -150 100 0 100 0 0 150 0 150 -100 0 -100 0 0 -150z"/>
<path d="M950 5550 l0 -300 100 0 100 0 0 300 0 300 -100 0 -100 0 0 -300z"/>
<path d="M1850 5700 l0 -150 100 0 100 0 0 150 0 150 -100 0 -100 0 0 -150z"/>
<path d="M3200 5700 l0 -150 100 0 100 0 0 150 0 150 -100 0 -100 0 0 -150z"/>
<path d="M6500 5550 l0 -300 100 0 100 0 0 300 0 300 -100 0 -100 0 0 -300z"/>
<path d="M6800 5400 l0 -450 100 0 100 0 0 450 0 450 -100 0 -100 0 0 -450z"/>
<path d="M9200 5700 l0 -150 100 0 100 0 0 150 0 150 -100 0 -100 0 0 -150z"/>
<path d="M10550 5700 l0 -150 100 0 100 0 0 150 0 150 -100 0 -100 0 0 -150z"/>
<path d="M10850 5400 l0 -450 100 0 100 0 0 450 0 450 -100 0 -100 0 0 -450z"/>
<path d="M1550 5400 l0 -150 100 0 100 0 0 150 0 150 -100 0 -100 0 0 -150z"/>
<path d="M2300 5400 l0 -150 100 0 100 0 0 150 0 150 -100 0 -100 0 0 -150z"/>
<path d="M2600 5400 l0 -150 100 0 100 0 0 150 0 150 -100 0 -100 0 0 -150z"/>
<path d="M3800 5400 l0 -150 100 0 100 0 0 150 0 150 -100 0 -100 0 0 -150z"/>
<path d="M4100 5400 l0 -150 100 0 100 0 0 150 0 150 -100 0 -100 0 0 -150z"/>
<path d="M5600 4500 l0 -1050 100 0 100 0 0 1050 0 1050 -100 0 -100 0 0
-1050z"/>
<path d="M5900 5400 l0 -150 100 0 100 0 0 150 0 150 -100 0 -100 0 0 -150z"/>
<path d="M8600 5250 l0 -300 100 0 100 0 0 300 0 300 -100 0 -100 0 0 -300z"/>
<path d="M8900 5400 l0 -150 100 0 100 0 0 150 0 150 -100 0 -100 0 0 -150z"/>
<path d="M9950 5400 l0 -150 100 0 100 0 0 150 0 150 -100 0 -100 0 0 -150z"/>
<path d="M11150 5250 l0 -300 100 0 100 0 0 300 0 300 -100 0 -100 0 0 -300z"/>
<path d="M1850 5100 l0 -150 100 0 100 0 0 150 0 150 -100 0 -100 0 0 -150z"/>
<path d="M2900 5100 l0 -150 100 0 100 0 0 150 0 150 -100 0 -100 0 0 -150z"/>
<path d="M4400 5100 l0 -150 100 0 100 0 0 150 0 150 -100 0 -100 0 0 -150z"/>
<path d="M4700 5100 l0 -150 100 0 100 0 0 150 0 150 -100 0 -100 0 0 -150z"/>
<path d="M7100 4350 l0 -900 100 0 100 0 0 900 0 900 -100 0 -100 0 0 -900z"/>
<path d="M7400 4950 l0 -300 100 0 100 0 0 300 0 300 -100 0 -100 0 0 -300z"/>
<path d="M7700 4950 l0 -300 100 0 100 0 0 300 0 300 -100 0 -100 0 0 -300z"/>
<path d="M8000 4950 l0 -300 100 0 100 0 0 300 0 300 -100 0 -100 0 0 -300z"/>
<path d="M8300 3900 l0 -1350 100 0 100 0 0 1350 0 1350 -100 0 -100 0 0
-1350z"/>
<path d="M10250 4950 l0 -300 100 0 100 0 0 300 0 300 -100 0 -100 0 0 -300z"/>
<path d="M10550 5100 l0 -150 100 0 100 0 0 150 0 150 -100 0 -100 0 0 -150z"/>
<path d="M950 4500 l0 -450 100 0 100 0 0 450 0 450 -100 0 -100 0 0 -450z"/>
<path d="M1550 4500 l0 -450 100 0 100 0 0 450 0 450 -100 0 -100 0 0 -450z"/>
<path d="M2300 4800 l0 -150 100 0 100 0 0 150 0 150 -100 0 -100 0 0 -150z"/>
<path d="M2600 4800 l0 -150 100 0 100 0 0 150 0 150 -100 0 -100 0 0 -150z"/>
<path d="M3207 4943 c-4 -3 -7 -71 -7 -150 l0 -143 100 0 100 0 0 150 0 150
-93 0 c-52 0 -97 -3 -100 -7z"/>
<path d="M3500 4800 l0 -150 100 0 100 0 0 150 0 150 -100 0 -100 0 0 -150z"/>
<path d="M3800 4800 l0 -150 100 0 100 0 0 150 0 150 -100 0 -100 0 0 -150z"/>
<path d="M4100 4800 l0 -150 100 0 100 0 0 150 0 150 -100 0 -100 0 0 -150z"/>
<path d="M5300 4800 l0 -150 100 0 100 0 0 150 0 150 -100 0 -100 0 0 -150z"/>
<path d="M9207 4943 c-4 -3 -7 -71 -7 -150 l0 -143 100 0 100 0 0 150 0 150
-93 0 c-52 0 -97 -3 -100 -7z"/>
<path d="M9957 4943 c-4 -3 -7 -71 -7 -150 l0 -143 100 0 100 0 0 150 0 150
-93 0 c-52 0 -97 -3 -100 -7z"/>
<path d="M1250 4350 l0 -300 100 0 100 0 0 300 0 300 -100 0 -100 0 0 -300z"/>
<path d="M1850 4500 l0 -150 100 0 100 0 0 150 0 150 -100 0 -100 0 0 -150z"/>
<path d="M4700 4350 l0 -300 100 0 100 0 0 300 0 300 -100 0 -100 0 0 -300z"/>
<path d="M6500 4500 l0 -150 100 0 100 0 0 150 0 150 -100 0 -100 0 0 -150z"/>
<path d="M9500 4200 l0 -450 100 0 100 0 0 450 0 450 -100 0 -100 0 0 -450z"/>
<path d="M2252 3503 l3 -848 155 0 155 0 3 688 2 687 730 0 730 0 2 -687 3
-688 155 0 155 0 3 848 2 847 -1050 0 -1050 0 2 -847z"/>
<path d="M5000 4200 l0 -150 100 0 100 0 0 150 0 150 -100 0 -100 0 0 -150z"/>
<path d="M5300 3750 l0 -600 100 0 100 0 0 600 0 600 -100 0 -100 0 0 -600z"/>
<path d="M5900 4050 l0 -300 100 0 100 0 0 300 0 300 -100 0 -100 0 0 -300z"/>
<path d="M7700 4200 l0 -150 100 0 100 0 0 150 0 150 -100 0 -100 0 0 -150z"/>
<path d="M9957 4343 c-4 -3 -7 -71 -7 -150 l0 -143 100 0 100 0 0 150 0 150
-93 0 c-52 0 -97 -3 -100 -7z"/>
<path d="M10550 3900 l0 -450 100 0 100 0 0 450 0 450 -100 0 -100 0 0 -450z"/>
<path d="M6500 3900 l0 -150 100 0 100 0 0 150 0 150 -100 0 -100 0 0 -150z"/>
<path d="M6800 3750 l0 -300 100 0 100 0 0 300 0 300 -100 0 -100 0 0 -300z"/>
<path d="M1850 3600 l0 -150 100 0 100 0 0 150 0 150 -100 0 -100 0 0 -150z"/>
<path d="M2850 3300 l0 -450 450 0 450 0 0 450 0 450 -450 0 -450 0 0 -450z"/>
<path d="M5000 3600 l0 -150 100 0 100 0 0 150 0 150 -100 0 -100 0 0 -150z"/>
<path d="M6200 3450 l0 -300 100 0 100 0 0 300 0 300 -100 0 -100 0 0 -300z"/>
<path d="M7400 3450 l0 -300 100 0 100 0 0 300 0 300 -100 0 -100 0 0 -300z"/>
<path d="M7700 3600 l0 -150 100 0 100 0 0 150 0 150 -100 0 -100 0 0 -150z"/>
<path d="M8000 3600 l0 -150 100 0 100 0 0 150 0 150 -100 0 -100 0 0 -150z"/>
<path d="M9200 3300 l0 -450 100 0 100 0 0 450 0 450 -100 0 -100 0 0 -450z"/>
<path d="M9950 3600 l0 -150 100 0 100 0 0 150 0 150 -100 0 -100 0 0 -150z"/>
<path d="M5900 3300 l0 -150 100 0 100 0 0 150 0 150 -100 0 -100 0 0 -150z"/>
<path d="M8900 3300 l0 -150 100 0 100 0 0 150 0 150 -100 0 -100 0 0 -150z"/>
<path d="M1550 3000 l0 -150 100 0 100 0 0 150 0 150 -100 0 -100 0 0 -150z"/>
<path d="M1850 3000 l0 -150 100 0 100 0 0 150 0 150 -100 0 -100 0 0 -150z"/>
<path d="M4700 3000 l0 -150 100 0 100 0 0 150 0 150 -100 0 -100 0 0 -150z"/>
<path d="M5600 3000 l0 -150 100 0 100 0 0 150 0 150 -100 0 -100 0 0 -150z"/>
<path d="M6500 3000 l0 -150 100 0 100 0 0 150 0 150 -100 0 -100 0 0 -150z"/>
<path d="M7100 2700 l0 -450 100 0 100 0 0 450 0 450 -100 0 -100 0 0 -450z"/>
<path d="M8000 2850 l0 -300 100 0 100 0 0 300 0 300 -100 0 -100 0 0 -300z"/>
<path d="M8600 3000 l0 -150 100 0 100 0 0 150 0 150 -100 0 -100 0 0 -150z"/>
<path d="M9500 3000 l0 -150 100 0 100 0 0 150 0 150 -100 0 -100 0 0 -150z"/>
<path d="M9950 3000 l0 -150 100 0 100 0 0 150 0 150 -100 0 -100 0 0 -150z"/>
<path d="M5000 2700 l0 -150 100 0 100 0 0 150 0 150 -100 0 -100 0 0 -150z"/>
<path d="M5300 2700 l0 -150 100 0 100 0 0 150 0 150 -100 0 -100 0 0 -150z"/>
<path d="M5900 2550 l0 -300 100 0 100 0 0 300 0 300 -100 0 -100 0 0 -300z"/>
<path d="M6800 2700 l0 -150 100 0 100 0 0 150 0 150 -100 0 -100 0 0 -150z"/>
<path d="M7400 2700 l0 -150 100 0 100 0 0 150 0 150 -100 0 -100 0 0 -150z"/>
<path d="M2723 2549 c-76 -37 -103 -136 -58 -206 55 -84 195 -83 250 1 47 71
18 168 -60 206 -52 25 -80 25 -132 -1z"/>
<path d="M3430 2552 c-72 -36 -100 -122 -63 -199 24 -50 67 -74 128 -71 l50 3
3 45 3 46 -38 -4 c-29 -3 -43 1 -57 17 -40 44 14 108 69 83 25 -11 25 -11 25
37 0 42 -3 49 -22 55 -38 10 -61 7 -98 -12z"/>
<path d="M3663 2551 c-142 -66 -94 -271 62 -271 85 0 145 57 145 138 0 112
-106 180 -207 133z"/>
<path d="M2250 2420 l0 -140 45 0 45 0 0 50 0 50 40 0 40 0 0 40 0 40 -40 0
c-22 0 -40 5 -40 10 0 6 18 10 40 10 l40 0 0 40 0 40 -85 0 -85 0 0 -140z"/>
<path d="M2450 2420 l0 -140 90 0 90 0 0 45 0 45 -45 0 -45 0 0 95 0 95 -45 0
-45 0 0 -140z"/>
<path d="M2932 2548 c3 -7 24 -71 48 -141 l42 -128 41 3 c44 3 42 1 68 98 l12
45 21 -70 22 -70 39 0 40 0 47 130 c26 72 47 134 47 138 1 4 -20 7 -46 5 l-47
-3 -19 -65 c-21 -71 -27 -68 -47 18 l-12 52 -42 0 -42 0 -20 -67 -20 -68 -20
65 -20 65 -48 3 c-37 2 -47 0 -44 -10z"/>
<path d="M3900 2420 l0 -140 63 0 c73 0 137 26 162 64 27 41 30 105 6 144 -34
53 -75 72 -158 72 l-73 0 0 -140z"/>
<path d="M4180 2420 l0 -140 85 0 85 0 0 40 0 40 -40 0 c-22 0 -40 5 -40 10 0
6 18 10 40 10 l40 0 0 40 0 40 -40 0 c-22 0 -40 5 -40 10 0 6 18 10 40 10 l40
0 0 40 0 40 -85 0 -85 0 0 -140z"/>
<path d="M4700 2400 l0 -150 100 0 100 0 0 150 0 150 -100 0 -100 0 0 -150z"/>
<path d="M8600 2400 l0 -150 100 0 100 0 0 150 0 150 -100 0 -100 0 0 -150z"/>
<path d="M9500 2400 l0 -150 100 0 100 0 0 150 0 150 -100 0 -100 0 0 -150z"/>
<path d="M2900 1800 l0 -300 100 0 100 0 0 300 0 300 -100 0 -100 0 0 -300z"/>
<path d="M3500 1800 l0 -300 100 0 100 0 0 300 0 300 -100 0 -100 0 0 -300z"/>
<path d="M3800 1950 l0 -150 100 0 100 0 0 150 0 150 -100 0 -100 0 0 -150z"/>
<path d="M4400 1950 l0 -150 100 0 100 0 0 150 0 150 -100 0 -100 0 0 -150z"/>
<path d="M4700 1650 l0 -450 100 0 100 0 0 450 0 450 -100 0 -100 0 0 -450z"/>
<path d="M5000 1650 l0 -450 100 0 100 0 0 450 0 450 -100 0 -100 0 0 -450z"/>
<path d="M5300 1950 l0 -150 100 0 100 0 0 150 0 150 -100 0 -100 0 0 -150z"/>
<path d="M6200 1650 l0 -450 100 0 100 0 0 450 0 450 -100 0 -100 0 0 -450z"/>
<path d="M6800 1950 l0 -150 100 0 100 0 0 150 0 150 -100 0 -100 0 0 -150z"/>
<path d="M7100 1800 l0 -300 100 0 100 0 0 300 0 300 -100 0 -100 0 0 -300z"/>
<path d="M7400 1650 l0 -450 100 0 100 0 0 450 0 450 -100 0 -100 0 0 -450z"/>
<path d="M7700 1650 l0 -450 100 0 100 0 0 450 0 450 -100 0 -100 0 0 -450z"/>
<path d="M8000 1950 l0 -150 100 0 100 0 0 150 0 150 -100 0 -100 0 0 -150z"/>
<path d="M8300 1950 l0 -150 100 0 100 0 0 150 0 150 -100 0 -100 0 0 -150z"/>
<path d="M9200 1950 l0 -150 100 0 100 0 0 150 0 150 -100 0 -100 0 0 -150z"/>
<path d="M6500 1650 l0 -150 100 0 100 0 0 150 0 150 -100 0 -100 0 0 -150z"/>
<path d="M3800 1350 l0 -150 100 0 100 0 0 150 0 150 -100 0 -100 0 0 -150z"/>
<path d="M4400 1350 l0 -150 100 0 100 0 0 150 0 150 -100 0 -100 0 0 -150z"/>
<path d="M5900 1350 l0 -150 100 0 100 0 0 150 0 150 -100 0 -100 0 0 -150z"/>
<path d="M6800 1350 l0 -150 100 0 100 0 0 150 0 150 -100 0 -100 0 0 -150z"/>
<path d="M4355 1057 c-31 -81 -62 -187 -57 -191 16 -17 41 -4 47 25 5 23 11
29 23 23 45 -19 69 -16 91 11 24 32 28 87 6 105 -8 6 -35 18 -60 25 -36 11
-47 12 -50 2z"/>
<path d="M7595 1048 c-2 -7 -6 -42 -7 -77 l-3 -65 -39 57 c-24 34 -47 57 -58
57 -22 0 -22 -10 -1 -122 14 -74 20 -88 36 -88 18 0 19 5 13 58 l-7 57 32 -47
c33 -51 36 -53 58 -39 10 6 12 23 9 60 -6 58 1 59 27 1 12 -26 25 -40 37 -40
25 0 24 5 -21 106 -37 83 -65 113 -76 82z"/>
<path d="M4521 997 c-5 -12 -19 -57 -31 -101 -18 -64 -19 -80 -8 -87 21 -14
25 -11 34 23 15 50 42 49 50 -2 4 -26 14 -45 26 -51 19 -10 20 -8 16 33 -4 35
0 47 19 65 26 25 32 83 9 102 -7 6 -34 17 -60 25 -45 14 -47 14 -55 -7z"/>
<path d="M7335 979 c-16 -5 -36 -16 -42 -26 -20 -26 -15 -84 10 -133 20 -41
26 -45 63 -48 53 -4 94 26 94 70 0 50 -22 108 -48 129 -27 21 -33 22 -77 8z"/>
<path d="M4765 845 c9 -100 19 -124 46 -125 9 0 119 177 119 190 0 6 -9 10
-19 10 -13 0 -31 -21 -57 -65 -21 -36 -40 -62 -41 -58 -2 4 -6 40 -10 78 -7
60 -11 70 -28 73 -20 3 -20 0 -10 -103z"/>
<path d="M7177 940 c-16 -5 -35 -14 -43 -21 -20 -17 -17 -96 6 -146 18 -40 22
-43 59 -43 46 0 93 18 88 34 -2 7 -24 10 -55 8 l-51 -4 -11 39 c-20 65 -12 87
38 97 30 7 42 15 40 25 -4 19 -32 23 -71 11z"/>
<path d="M4951 806 c-28 -51 -51 -96 -51 -100 0 -15 40 -4 50 14 19 35 80 23
80 -15 0 -15 8 -26 21 -30 11 -4 22 -5 24 -3 1 1 -4 50 -12 108 -21 154 -41
158 -112 26z"/>
<path d="M6941 890 c-57 -14 -64 -28 -51 -101 20 -117 26 -123 108 -107 40 8
52 15 50 27 -3 12 -15 16 -53 16 -39 0 -50 4 -53 17 -2 12 5 19 25 23 48 11
53 14 53 31 0 14 -7 15 -45 10 -43 -7 -45 -6 -45 18 0 22 5 26 46 32 34 5 44
10 42 23 -4 19 -29 23 -77 11z"/>
<path d="M5162 863 c-20 -8 -40 -55 -48 -111 -6 -46 -4 -53 19 -76 21 -20 36
-26 72 -26 39 0 46 3 43 18 -2 12 -14 18 -41 20 -46 4 -58 24 -47 80 11 60 20
67 69 54 37 -9 41 -8 41 8 0 27 -70 48 -108 33z"/>
<path d="M6713 853 c-27 -5 -28 -15 -11 -130 10 -74 13 -83 32 -83 42 1 101
19 113 36 28 38 9 155 -27 174 -19 10 -65 11 -107 3z"/>
<path d="M6533 830 c-42 -17 -54 -75 -33 -152 13 -46 40 -62 92 -55 63 8 71
20 66 105 -3 63 -7 77 -27 93 -25 20 -62 23 -98 9z"/>
<path d="M5551 806 c-12 -15 -17 -40 -25 -138 -4 -56 -4 -58 20 -58 21 0 24 4
24 40 l0 40 45 0 c61 0 63 26 2 35 -40 6 -43 9 -39 32 4 22 9 24 51 22 35 -3
47 0 49 13 5 28 -105 41 -127 14z"/>
<path d="M6349 801 c-21 -16 -24 -28 -23 -79 1 -97 36 -131 114 -114 22 5 36
15 38 26 4 17 -1 18 -40 12 -58 -9 -70 5 -66 76 l3 53 43 3 c34 3 42 7 42 23
0 16 -7 19 -44 19 -28 0 -52 -7 -67 -19z"/>
<path d="M5893 800 c-32 -13 -43 -41 -43 -109 0 -48 4 -65 20 -81 26 -26 89
-27 121 -1 21 17 24 28 24 90 0 49 -4 75 -15 85 -19 19 -79 28 -107 16z"/>
<path d="M6140 768 c-25 -99 -26 -99 -45 -30 -16 53 -22 62 -41 62 l-23 0 20
-67 c11 -38 24 -85 30 -106 8 -31 14 -38 32 -35 18 2 24 14 36 66 8 34 17 62
21 62 4 0 15 -27 25 -60 10 -34 22 -63 26 -66 21 -13 37 13 53 89 10 45 20 92
23 105 4 17 1 22 -16 22 -14 0 -22 -8 -27 -27 -3 -16 -10 -46 -16 -67 l-10
-40 -21 65 c-27 80 -51 90 -67 27z"/>
</g>
</svg>
